{
	"patcher" : 	{
		"fileversion" : 1,
		"appversion" : 		{
			"major" : 8,
			"minor" : 1,
			"revision" : 10,
			"architecture" : "x64",
			"modernui" : 1
		}
,
		"classnamespace" : "box",
		"rect" : [ 140.0, 79.0, 1162.0, 706.0 ],
		"bglocked" : 0,
		"openinpresentation" : 0,
		"default_fontsize" : 12.0,
		"default_fontface" : 0,
		"default_fontname" : "Arial",
		"gridonopen" : 1,
		"gridsize" : [ 15.0, 15.0 ],
		"gridsnaponopen" : 1,
		"objectsnaponopen" : 1,
		"statusbarvisible" : 2,
		"toolbarvisible" : 1,
		"lefttoolbarpinned" : 0,
		"toptoolbarpinned" : 0,
		"righttoolbarpinned" : 0,
		"bottomtoolbarpinned" : 0,
		"toolbars_unpinned_last_save" : 0,
		"tallnewobj" : 0,
		"boxanimatetime" : 200,
		"enablehscroll" : 1,
		"enablevscroll" : 1,
		"devicewidth" : 0.0,
		"description" : "",
		"digest" : "",
		"tags" : "",
		"style" : "",
		"subpatcher_template" : "",
		"assistshowspatchername" : 0,
		"boxes" : [ 			{
				"box" : 				{
					"fontface" : 1,
					"id" : "obj-101",
					"maxclass" : "comment",
					"numinlets" : 1,
					"numoutlets" : 0,
					"patching_rect" : [ 565.583343333333232, 45.0, 105.0, 20.0 ],
					"text" : "dump to get data"
				}

			}
, 			{
				"box" : 				{
					"fontface" : 1,
					"id" : "obj-89",
					"maxclass" : "comment",
					"numinlets" : 1,
					"numoutlets" : 0,
					"patching_rect" : [ 743.071428571428442, 1014.5, 60.0, 20.0 ],
					"text" : "mod freq"
				}

			}
, 			{
				"box" : 				{
					"fontface" : 1,
					"id" : "obj-90",
					"maxclass" : "comment",
					"numinlets" : 1,
					"numoutlets" : 0,
					"patching_rect" : [ 863.071428571428442, 1014.5, 104.0, 20.0 ],
					"text" : "mod depth"
				}

			}
, 			{
				"box" : 				{
					"fontface" : 1,
					"id" : "obj-87",
					"maxclass" : "comment",
					"numinlets" : 1,
					"numoutlets" : 0,
					"patching_rect" : [ 737.000009999999975, 696.0, 60.0, 20.0 ],
					"text" : "mod freq"
				}

			}
, 			{
				"box" : 				{
					"fontface" : 1,
					"id" : "obj-88",
					"maxclass" : "comment",
					"numinlets" : 1,
					"numoutlets" : 0,
					"patching_rect" : [ 857.000009999999975, 696.0, 104.0, 20.0 ],
					"text" : "mod depth"
				}

			}
, 			{
				"box" : 				{
					"fontface" : 1,
					"id" : "obj-84",
					"maxclass" : "comment",
					"numinlets" : 1,
					"numoutlets" : 0,
					"patching_rect" : [ 383.0, 1012.5, 60.0, 20.0 ],
					"text" : "mod freq"
				}

			}
, 			{
				"box" : 				{
					"fontface" : 1,
					"id" : "obj-86",
					"maxclass" : "comment",
					"numinlets" : 1,
					"numoutlets" : 0,
					"patching_rect" : [ 503.0, 1012.5, 104.0, 20.0 ],
					"text" : "mod depth"
				}

			}
, 			{
				"box" : 				{
					"fontface" : 1,
					"id" : "obj-82",
					"maxclass" : "comment",
					"numinlets" : 1,
					"numoutlets" : 0,
					"patching_rect" : [ 42.0, 1012.5, 60.0, 20.0 ],
					"text" : "mod freq"
				}

			}
, 			{
				"box" : 				{
					"fontface" : 1,
					"id" : "obj-83",
					"maxclass" : "comment",
					"numinlets" : 1,
					"numoutlets" : 0,
					"patching_rect" : [ 162.0, 1012.5, 104.0, 20.0 ],
					"text" : "mod depth"
				}

			}
, 			{
				"box" : 				{
					"fontface" : 1,
					"id" : "obj-79",
					"maxclass" : "comment",
					"numinlets" : 1,
					"numoutlets" : 0,
					"patching_rect" : [ 383.0, 696.0, 60.0, 20.0 ],
					"text" : "mod freq"
				}

			}
, 			{
				"box" : 				{
					"fontface" : 1,
					"id" : "obj-81",
					"maxclass" : "comment",
					"numinlets" : 1,
					"numoutlets" : 0,
					"patching_rect" : [ 503.0, 696.0, 104.0, 20.0 ],
					"text" : "mod depth"
				}

			}
, 			{
				"box" : 				{
					"fontface" : 1,
					"id" : "obj-78",
					"maxclass" : "comment",
					"numinlets" : 1,
					"numoutlets" : 0,
					"patching_rect" : [ 42.0, 700.0, 60.0, 20.0 ],
					"text" : "mod freq"
				}

			}
, 			{
				"box" : 				{
					"fontface" : 1,
					"id" : "obj-77",
					"maxclass" : "comment",
					"numinlets" : 1,
					"numoutlets" : 0,
					"patching_rect" : [ 162.0, 700.0, 104.0, 20.0 ],
					"text" : "mod depth"
				}

			}
, 			{
				"box" : 				{
					"id" : "obj-73",
					"maxclass" : "message",
					"numinlets" : 2,
					"numoutlets" : 1,
					"outlettype" : [ "" ],
					"patching_rect" : [ 849.571428571428555, 1069.5, 111.0, 22.0 ],
					"text" : "0.53428"
				}

			}
, 			{
				"box" : 				{
					"id" : "obj-74",
					"maxclass" : "message",
					"numinlets" : 2,
					"numoutlets" : 1,
					"outlettype" : [ "" ],
					"patching_rect" : [ 717.571428571428555, 1069.5, 111.0, 22.0 ],
					"text" : "3.694199"
				}

			}
, 			{
				"box" : 				{
					"id" : "obj-75",
					"maxclass" : "newobj",
					"numinlets" : 1,
					"numoutlets" : 2,
					"outlettype" : [ "", "bang" ],
					"patching_rect" : [ 849.571428571428555, 1034.5, 111.0, 22.0 ],
					"text" : "bach.keys 4 @out t"
				}

			}
, 			{
				"box" : 				{
					"id" : "obj-76",
					"maxclass" : "newobj",
					"numinlets" : 1,
					"numoutlets" : 2,
					"outlettype" : [ "", "bang" ],
					"patching_rect" : [ 717.571428571428555, 1034.5, 111.0, 22.0 ],
					"text" : "bach.keys 3 @out t"
				}

			}
, 			{
				"box" : 				{
					"id" : "obj-69",
					"maxclass" : "message",
					"numinlets" : 2,
					"numoutlets" : 1,
					"outlettype" : [ "" ],
					"patching_rect" : [ 155.0, 1069.5, 111.0, 22.0 ],
					"text" : "0."
				}

			}
, 			{
				"box" : 				{
					"id" : "obj-70",
					"maxclass" : "message",
					"numinlets" : 2,
					"numoutlets" : 1,
					"outlettype" : [ "" ],
					"patching_rect" : [ 23.0, 1069.5, 111.0, 22.0 ],
					"text" : "0."
				}

			}
, 			{
				"box" : 				{
					"id" : "obj-71",
					"maxclass" : "newobj",
					"numinlets" : 1,
					"numoutlets" : 2,
					"outlettype" : [ "", "bang" ],
					"patching_rect" : [ 155.0, 1034.5, 111.0, 22.0 ],
					"text" : "bach.keys 4 @out t"
				}

			}
, 			{
				"box" : 				{
					"id" : "obj-72",
					"maxclass" : "newobj",
					"numinlets" : 1,
					"numoutlets" : 2,
					"outlettype" : [ "", "bang" ],
					"patching_rect" : [ 23.0, 1034.5, 111.0, 22.0 ],
					"text" : "bach.keys 3 @out t"
				}

			}
, 			{
				"box" : 				{
					"id" : "obj-54",
					"maxclass" : "message",
					"numinlets" : 2,
					"numoutlets" : 1,
					"outlettype" : [ "" ],
					"patching_rect" : [ 496.0, 1069.5, 111.0, 22.0 ],
					"text" : "0.30607"
				}

			}
, 			{
				"box" : 				{
					"id" : "obj-55",
					"maxclass" : "message",
					"numinlets" : 2,
					"numoutlets" : 1,
					"outlettype" : [ "" ],
					"patching_rect" : [ 364.0, 1069.5, 111.0, 22.0 ],
					"text" : "1.08105"
				}

			}
, 			{
				"box" : 				{
					"id" : "obj-56",
					"maxclass" : "newobj",
					"numinlets" : 1,
					"numoutlets" : 2,
					"outlettype" : [ "", "bang" ],
					"patching_rect" : [ 496.0, 1034.5, 111.0, 22.0 ],
					"text" : "bach.keys 4 @out t"
				}

			}
, 			{
				"box" : 				{
					"id" : "obj-57",
					"maxclass" : "newobj",
					"numinlets" : 1,
					"numoutlets" : 2,
					"outlettype" : [ "", "bang" ],
					"patching_rect" : [ 364.0, 1034.5, 111.0, 22.0 ],
					"text" : "bach.keys 3 @out t"
				}

			}
, 			{
				"box" : 				{
					"id" : "obj-47",
					"maxclass" : "message",
					"numinlets" : 2,
					"numoutlets" : 1,
					"outlettype" : [ "" ],
					"patching_rect" : [ 853.000000000000114, 753.0, 111.0, 22.0 ],
					"text" : "0."
				}

			}
, 			{
				"box" : 				{
					"id" : "obj-48",
					"maxclass" : "message",
					"numinlets" : 2,
					"numoutlets" : 1,
					"outlettype" : [ "" ],
					"patching_rect" : [ 721.000000000000114, 753.0, 111.0, 22.0 ],
					"text" : "0."
				}

			}
, 			{
				"box" : 				{
					"id" : "obj-50",
					"maxclass" : "newobj",
					"numinlets" : 1,
					"numoutlets" : 2,
					"outlettype" : [ "", "bang" ],
					"patching_rect" : [ 853.000000000000114, 718.0, 111.0, 22.0 ],
					"text" : "bach.keys 4 @out t"
				}

			}
, 			{
				"box" : 				{
					"id" : "obj-53",
					"maxclass" : "newobj",
					"numinlets" : 1,
					"numoutlets" : 2,
					"outlettype" : [ "", "bang" ],
					"patching_rect" : [ 721.000000000000114, 718.0, 111.0, 22.0 ],
					"text" : "bach.keys 3 @out t"
				}

			}
, 			{
				"box" : 				{
					"id" : "obj-43",
					"maxclass" : "message",
					"numinlets" : 2,
					"numoutlets" : 1,
					"outlettype" : [ "" ],
					"patching_rect" : [ 496.0, 753.0, 111.0, 22.0 ],
					"text" : "0."
				}

			}
, 			{
				"box" : 				{
					"id" : "obj-44",
					"maxclass" : "message",
					"numinlets" : 2,
					"numoutlets" : 1,
					"outlettype" : [ "" ],
					"patching_rect" : [ 364.0, 753.0, 111.0, 22.0 ],
					"text" : "0."
				}

			}
, 			{
				"box" : 				{
					"id" : "obj-45",
					"maxclass" : "newobj",
					"numinlets" : 1,
					"numoutlets" : 2,
					"outlettype" : [ "", "bang" ],
					"patching_rect" : [ 496.0, 718.0, 111.0, 22.0 ],
					"text" : "bach.keys 4 @out t"
				}

			}
, 			{
				"box" : 				{
					"id" : "obj-46",
					"maxclass" : "newobj",
					"numinlets" : 1,
					"numoutlets" : 2,
					"outlettype" : [ "", "bang" ],
					"patching_rect" : [ 364.0, 718.0, 111.0, 22.0 ],
					"text" : "bach.keys 3 @out t"
				}

			}
, 			{
				"box" : 				{
					"id" : "obj-40",
					"maxclass" : "message",
					"numinlets" : 2,
					"numoutlets" : 1,
					"outlettype" : [ "" ],
					"patching_rect" : [ 155.0, 753.0, 111.0, 22.0 ],
					"text" : "0."
				}

			}
, 			{
				"box" : 				{
					"id" : "obj-38",
					"maxclass" : "message",
					"numinlets" : 2,
					"numoutlets" : 1,
					"outlettype" : [ "" ],
					"patching_rect" : [ 23.0, 753.0, 111.0, 22.0 ],
					"text" : "0."
				}

			}
, 			{
				"box" : 				{
					"id" : "obj-34",
					"maxclass" : "newobj",
					"numinlets" : 1,
					"numoutlets" : 2,
					"outlettype" : [ "", "bang" ],
					"patching_rect" : [ 155.0, 718.0, 111.0, 22.0 ],
					"text" : "bach.keys 4 @out t"
				}

			}
, 			{
				"box" : 				{
					"id" : "obj-33",
					"maxclass" : "newobj",
					"numinlets" : 1,
					"numoutlets" : 2,
					"outlettype" : [ "", "bang" ],
					"patching_rect" : [ 23.0, 718.0, 111.0, 22.0 ],
					"text" : "bach.keys 3 @out t"
				}

			}
, 			{
				"box" : 				{
					"id" : "obj-32",
					"maxclass" : "newobj",
					"numinlets" : 1,
					"numoutlets" : 2,
					"outlettype" : [ "", "bang" ],
					"patching_rect" : [ 717.571428571428555, 886.5, 111.0, 22.0 ],
					"text" : "bach.keys 1 @out t"
				}

			}
, 			{
				"box" : 				{
					"id" : "obj-31",
					"maxclass" : "newobj",
					"numinlets" : 1,
					"numoutlets" : 2,
					"outlettype" : [ "", "bang" ],
					"patching_rect" : [ 721.000000000000114, 587.0, 111.0, 22.0 ],
					"text" : "bach.keys 1 @out t"
				}

			}
, 			{
				"box" : 				{
					"id" : "obj-28",
					"maxclass" : "newobj",
					"numinlets" : 1,
					"numoutlets" : 2,
					"outlettype" : [ "", "bang" ],
					"patching_rect" : [ 364.0, 886.5, 111.0, 22.0 ],
					"text" : "bach.keys 1 @out t"
				}

			}
, 			{
				"box" : 				{
					"id" : "obj-27",
					"maxclass" : "newobj",
					"numinlets" : 1,
					"numoutlets" : 2,
					"outlettype" : [ "", "bang" ],
					"patching_rect" : [ 364.0, 587.0, 111.0, 22.0 ],
					"text" : "bach.keys 1 @out t"
				}

			}
, 			{
				"box" : 				{
					"id" : "obj-26",
					"maxclass" : "newobj",
					"numinlets" : 1,
					"numoutlets" : 2,
					"outlettype" : [ "", "bang" ],
					"patching_rect" : [ 23.0, 886.5, 111.0, 22.0 ],
					"text" : "bach.keys 1 @out t"
				}

			}
, 			{
				"box" : 				{
					"id" : "obj-20",
					"maxclass" : "newobj",
					"numinlets" : 1,
					"numoutlets" : 2,
					"outlettype" : [ "", "bang" ],
					"patching_rect" : [ 23.0, 587.0, 111.0, 22.0 ],
					"text" : "bach.keys 1 @out t"
				}

			}
, 			{
				"box" : 				{
					"fontface" : 1,
					"id" : "obj-17",
					"linecount" : 9,
					"maxclass" : "comment",
					"numinlets" : 1,
					"numoutlets" : 0,
					"patching_rect" : [ 919.0, 380.833327999999995, 130.0, 127.0 ],
					"text" : "slots info :\nslot 1 envelope\nslot 2 gate control\nslot 3 AM mod freq\nslot 4 AM mod depth\nslot 5 else\nslot 6 FM mod freq\nslot 7 FM mod ratio\nslot 9 spat"
				}

			}
, 			{
				"box" : 				{
					"fontface" : 1,
					"id" : "obj-14",
					"maxclass" : "comment",
					"numinlets" : 1,
					"numoutlets" : 0,
					"patching_rect" : [ 737.000009999999975, 837.5, 75.0, 20.0 ],
					"text" : "note 6 env"
				}

			}
, 			{
				"box" : 				{
					"fontface" : 1,
					"id" : "obj-13",
					"maxclass" : "comment",
					"numinlets" : 1,
					"numoutlets" : 0,
					"patching_rect" : [ 737.000009999999975, 535.5, 75.0, 20.0 ],
					"text" : "note 5 env"
				}

			}
, 			{
				"box" : 				{
					"fontface" : 1,
					"id" : "obj-10",
					"maxclass" : "comment",
					"numinlets" : 1,
					"numoutlets" : 0,
					"patching_rect" : [ 383.0, 837.5, 75.0, 20.0 ],
					"text" : "note 4 env"
				}

			}
, 			{
				"box" : 				{
					"fontface" : 1,
					"id" : "obj-6",
					"maxclass" : "comment",
					"numinlets" : 1,
					"numoutlets" : 0,
					"patching_rect" : [ 383.0, 538.5, 75.0, 20.0 ],
					"text" : "note 3 env"
				}

			}
, 			{
				"box" : 				{
					"fontface" : 1,
					"id" : "obj-4",
					"maxclass" : "comment",
					"numinlets" : 1,
					"numoutlets" : 0,
					"patching_rect" : [ 47.0, 837.5, 75.0, 20.0 ],
					"text" : "note 2 env"
				}

			}
, 			{
				"box" : 				{
					"fontface" : 1,
					"id" : "obj-3",
					"maxclass" : "comment",
					"numinlets" : 1,
					"numoutlets" : 0,
					"patching_rect" : [ 47.0, 538.5, 75.0, 20.0 ],
					"text" : "note 1 env"
				}

			}
, 			{
				"box" : 				{
					"fontface" : 1,
					"id" : "obj-104",
					"maxclass" : "comment",
					"numinlets" : 1,
					"numoutlets" : 0,
					"patching_rect" : [ 737.000009999999975, 377.833327999999995, 61.0, 20.0 ],
					"text" : "slots"
				}

			}
, 			{
				"box" : 				{
					"fontface" : 1,
					"id" : "obj-105",
					"maxclass" : "comment",
					"numinlets" : 1,
					"numoutlets" : 0,
					"patching_rect" : [ 417.5, 377.833327999999995, 56.0, 20.0 ],
					"text" : "duration"
				}

			}
, 			{
				"box" : 				{
					"fontface" : 1,
					"id" : "obj-106",
					"maxclass" : "comment",
					"numinlets" : 1,
					"numoutlets" : 0,
					"patching_rect" : [ 595.571428571428555, 377.833327999999995, 89.0, 20.0 ],
					"text" : "velocity (gain)"
				}

			}
, 			{
				"box" : 				{
					"fontface" : 1,
					"id" : "obj-107",
					"maxclass" : "comment",
					"numinlets" : 1,
					"numoutlets" : 0,
					"patching_rect" : [ 265.0, 377.833327999999995, 66.0, 20.0 ],
					"text" : "frequency"
				}

			}
, 			{
				"box" : 				{
					"id" : "obj-102",
					"linecount" : 3,
					"maxclass" : "message",
					"numinlets" : 2,
					"numoutlets" : 1,
					"outlettype" : [ "" ],
					"patching_rect" : [ 364.0, 623.5, 239.999999999999886, 49.0 ],
					"text" : "( 0. -70. 0. ) ( 0.277391 -25.666656 0. ) ( 0.474819 -28.2 0. ) ( 0.94759 -50.095184 0.61 ) ( 1. -70. 0. )"
				}

			}
, 			{
				"box" : 				{
					"id" : "obj-100",
					"linecount" : 2,
					"maxclass" : "message",
					"numinlets" : 2,
					"numoutlets" : 1,
					"outlettype" : [ "" ],
					"patching_rect" : [ 364.0, 923.0, 248.0, 35.0 ],
					"text" : "( 0. -70. 0. ) ( 0.602411 -38.333313 0. ) ( 0.721994 -51. 0. ) ( 1. -70. 0.4 )"
				}

			}
, 			{
				"box" : 				{
					"id" : "obj-99",
					"maxclass" : "newobj",
					"numinlets" : 2,
					"numoutlets" : 1,
					"outlettype" : [ "" ],
					"patching_rect" : [ 364.0, 856.5, 113.0, 22.0 ],
					"text" : "bach.nth 1 2 @out t"
				}

			}
, 			{
				"box" : 				{
					"id" : "obj-98",
					"linecount" : 5,
					"maxclass" : "message",
					"numinlets" : 2,
					"numoutlets" : 1,
					"outlettype" : [ "" ],
					"patching_rect" : [ 23.0, 923.0, 280.0, 76.0 ],
					"text" : "( 0. -70. 0. ) ( 0.039256 -61.555542 0. ) ( 0.188868 -34.955536 0.69 ) ( 0.450209 -19.514282 0. ) ( 0.618321 -18.066666 0. ) ( 0.748624 -47.38092 0. ) ( 0.822229 -28.622208 0. ) ( 0.952577 -55.161865 0. ) ( 1. -70. 0. )"
				}

			}
, 			{
				"box" : 				{
					"id" : "obj-97",
					"linecount" : 4,
					"maxclass" : "message",
					"numinlets" : 2,
					"numoutlets" : 1,
					"outlettype" : [ "" ],
					"patching_rect" : [ 23.0, 623.5, 285.0, 62.0 ],
					"text" : "( 0. -70. 0. ) ( 0.039675 -32. 0. ) ( 0.214305 -11.552376 0. ) ( 0.33341 -13.422218 0. ) ( 0.380745 -21.022217 0. ) ( 0.43518 -18.488876 0. ) ( 0.799662 -24.82222 0. ) ( 1. -70. 0.59 )"
				}

			}
, 			{
				"box" : 				{
					"id" : "obj-96",
					"maxclass" : "newobj",
					"numinlets" : 2,
					"numoutlets" : 1,
					"outlettype" : [ "" ],
					"patching_rect" : [ 364.0, 557.5, 123.0, 22.0 ],
					"text" : "bach.nth 1 1 3 @out t"
				}

			}
, 			{
				"box" : 				{
					"id" : "obj-95",
					"maxclass" : "newobj",
					"numinlets" : 2,
					"numoutlets" : 1,
					"outlettype" : [ "" ],
					"patching_rect" : [ 23.0, 856.5, 123.0, 22.0 ],
					"text" : "bach.nth 1 1 2 @out t"
				}

			}
, 			{
				"box" : 				{
					"id" : "obj-94",
					"maxclass" : "newobj",
					"numinlets" : 2,
					"numoutlets" : 1,
					"outlettype" : [ "" ],
					"patching_rect" : [ 23.0, 557.5, 123.0, 22.0 ],
					"text" : "bach.nth 1 1 1 @out t"
				}

			}
, 			{
				"box" : 				{
					"id" : "obj-93",
					"linecount" : 5,
					"maxclass" : "message",
					"numinlets" : 2,
					"numoutlets" : 1,
					"outlettype" : [ "" ],
					"patching_rect" : [ 717.571428571428555, 923.0, 283.0, 76.0 ],
					"text" : "( 0. -70. 0. ) ( 0.017542 -55.222198 0. ) ( 0.139609 -30.371414 -0.331429 ) ( 0.225479 -21.685699 0. ) ( 0.333927 -28.803162 0. ) ( 0.440479 -15.955551 0. ) ( 0.50055 -23.133316 0. ) ( 0.750051 -51.422211 -0.09 ) ( 1. -70. 0.68 )"
				}

			}
, 			{
				"box" : 				{
					"id" : "obj-91",
					"maxclass" : "newobj",
					"numinlets" : 2,
					"numoutlets" : 1,
					"outlettype" : [ "" ],
					"patching_rect" : [ 717.571428571428555, 856.0, 123.0, 22.0 ],
					"text" : "bach.nth 1 3 2 @out t"
				}

			}
, 			{
				"box" : 				{
					"id" : "obj-85",
					"maxclass" : "newobj",
					"numinlets" : 2,
					"numoutlets" : 1,
					"outlettype" : [ "" ],
					"patching_rect" : [ 721.000000000000114, 557.5, 123.0, 22.0 ],
					"text" : "bach.nth 1 3 1 @out t"
				}

			}
, 			{
				"box" : 				{
					"id" : "obj-80",
					"linecount" : 4,
					"maxclass" : "message",
					"numinlets" : 2,
					"numoutlets" : 1,
					"outlettype" : [ "" ],
					"patching_rect" : [ 721.000000000000114, 623.5, 315.999999999999886, 62.0 ],
					"text" : "( 0. -70. 0. ) ( 0.087859 -38.755554 0. ) ( 0.230352 -17.222214 0. ) ( 0.333927 -19.936493 0. ) ( 0.505473 -45.088867 0. ) ( 0.651716 -41.228546 0. ) ( 0.764884 -27.355545 0. ) ( 0.86448 -49.79364 0. ) ( 1. -70. 0. )"
				}

			}
, 			{
				"box" : 				{
					"id" : "obj-41",
					"linecount" : 2,
					"maxclass" : "newobj",
					"numinlets" : 1,
					"numoutlets" : 2,
					"outlettype" : [ "", "bang" ],
					"patching_rect" : [ 717.571428571428555, 436.0, 172.0, 35.0 ],
					"text" : "bach.keys slots @maxdepth 2 @out t"
				}

			}
, 			{
				"box" : 				{
					"id" : "obj-30",
					"maxclass" : "newobj",
					"numinlets" : 1,
					"numoutlets" : 2,
					"outlettype" : [ "", "bang" ],
					"patching_rect" : [ 717.571428571428555, 399.0, 107.0, 22.0 ],
					"text" : "bach.portal @out t"
				}

			}
, 			{
				"box" : 				{
					"id" : "obj-29",
					"linecount" : 2,
					"maxclass" : "message",
					"numinlets" : 2,
					"numoutlets" : 1,
					"outlettype" : [ "" ],
					"patching_rect" : [ 586.571428571428555, 436.0, 107.0, 35.0 ],
					"text" : "( ( 56 25 8 ) ( 17 ) ( 74 6 ) )"
				}

			}
, 			{
				"box" : 				{
					"id" : "obj-24",
					"maxclass" : "newobj",
					"numinlets" : 1,
					"numoutlets" : 2,
					"outlettype" : [ "", "bang" ],
					"patching_rect" : [ 586.571428571428555, 399.0, 107.0, 22.0 ],
					"text" : "bach.portal @out t"
				}

			}
, 			{
				"box" : 				{
					"id" : "obj-22",
					"linecount" : 3,
					"maxclass" : "message",
					"numinlets" : 2,
					"numoutlets" : 1,
					"outlettype" : [ "" ],
					"patching_rect" : [ 396.571428571428555, 436.0, 182.0, 49.0 ],
					"text" : "( ( 22325.875 10025.875 13675.875 ) ( 21082.921875 ) ( 13684.859375 22934.859375 ) )"
				}

			}
, 			{
				"box" : 				{
					"id" : "obj-21",
					"maxclass" : "newobj",
					"numinlets" : 1,
					"numoutlets" : 2,
					"outlettype" : [ "", "bang" ],
					"patching_rect" : [ 396.571428571428555, 399.0, 107.0, 22.0 ],
					"text" : "bach.portal @out t"
				}

			}
, 			{
				"box" : 				{
					"id" : "obj-16",
					"linecount" : 2,
					"maxclass" : "message",
					"numinlets" : 2,
					"numoutlets" : 1,
					"outlettype" : [ "" ],
					"patching_rect" : [ 252.14285714285711, 436.0, 138.0, 35.0 ],
					"text" : "( ( 6850. 8200. 9500. ) ( 8900. ) ( 7000. 8150. ) )"
				}

			}
, 			{
				"box" : 				{
					"id" : "obj-15",
					"maxclass" : "message",
					"numinlets" : 2,
					"numoutlets" : 1,
					"outlettype" : [ "" ],
					"patching_rect" : [ 23.0, 436.0, 208.0, 22.0 ],
					"text" : "( 1239.761719 8149.75 12981. )"
				}

			}
, 			{
				"box" : 				{
					"id" : "obj-12",
					"maxclass" : "newobj",
					"numinlets" : 1,
					"numoutlets" : 2,
					"outlettype" : [ "", "bang" ],
					"patching_rect" : [ 252.14285714285711, 399.0, 107.0, 22.0 ],
					"text" : "bach.portal @out t"
				}

			}
, 			{
				"box" : 				{
					"id" : "obj-1",
					"maxclass" : "newobj",
					"numinlets" : 1,
					"numoutlets" : 2,
					"outlettype" : [ "", "bang" ],
					"patching_rect" : [ 124.0, 399.0, 107.0, 22.0 ],
					"text" : "bach.portal @out t"
				}

			}
, 			{
				"box" : 				{
					"id" : "obj-92",
					"maxclass" : "message",
					"numinlets" : 2,
					"numoutlets" : 1,
					"outlettype" : [ "" ],
					"patching_rect" : [ 766.083333333333258, 71.0, 41.0, 22.0 ],
					"text" : "pause"
				}

			}
, 			{
				"box" : 				{
					"id" : "obj-65",
					"maxclass" : "newobj",
					"numinlets" : 1,
					"numoutlets" : 1,
					"outlettype" : [ "" ],
					"patching_rect" : [ 923.5, 71.0, 87.0, 22.0 ],
					"text" : "loadmess 0.25"
				}

			}
, 			{
				"box" : 				{
					"id" : "obj-5",
					"maxclass" : "newobj",
					"numinlets" : 2,
					"numoutlets" : 0,
					"patching_rect" : [ 939.5, 327.0, 48.25, 22.0 ],
					"text" : "dac~"
				}

			}
, 			{
				"box" : 				{
					"id" : "obj-7",
					"lastchannelcount" : 0,
					"maxclass" : "live.gain~",
					"numinlets" : 2,
					"numoutlets" : 5,
					"outlettype" : [ "signal", "signal", "", "float", "list" ],
					"parameter_enable" : 1,
					"patching_rect" : [ 939.5, 189.0, 47.0, 136.0 ],
					"saved_attribute_attributes" : 					{
						"valueof" : 						{
							"parameter_initial" : [ 0.0 ],
							"parameter_longname" : "live.gain~",
							"parameter_mmax" : 6.0,
							"parameter_mmin" : -70.0,
							"parameter_shortname" : "live.gain~",
							"parameter_type" : 0,
							"parameter_unitstyle" : 4
						}

					}
,
					"varname" : "live.gain~[1]"
				}

			}
, 			{
				"box" : 				{
					"format" : 6,
					"id" : "obj-8",
					"maxclass" : "flonum",
					"numinlets" : 1,
					"numoutlets" : 2,
					"outlettype" : [ "", "bang" ],
					"parameter_enable" : 0,
					"patching_rect" : [ 936.0, 141.0, 54.0, 22.0 ]
				}

			}
, 			{
				"box" : 				{
					"id" : "obj-9",
					"maxclass" : "newobj",
					"numinlets" : 2,
					"numoutlets" : 1,
					"outlettype" : [ "signal" ],
					"patching_rect" : [ 936.0, 165.0, 53.5, 22.0 ],
					"text" : "*~"
				}

			}
, 			{
				"box" : 				{
					"id" : "obj-60",
					"maxclass" : "newobj",
					"numinlets" : 1,
					"numoutlets" : 2,
					"outlettype" : [ "signal", "" ],
					"patching_rect" : [ 913.0, 117.0, 103.0, 22.0 ],
					"text" : "cage.ezsynth~ 20"
				}

			}
, 			{
				"box" : 				{
					"id" : "obj-23",
					"maxclass" : "message",
					"numinlets" : 2,
					"numoutlets" : 1,
					"outlettype" : [ "" ],
					"patching_rect" : [ 598.583343333333232, 71.0, 39.0, 22.0 ],
					"text" : "dump"
				}

			}
, 			{
				"box" : 				{
					"id" : "obj-68",
					"maxclass" : "message",
					"numinlets" : 2,
					"numoutlets" : 1,
					"outlettype" : [ "" ],
					"patching_rect" : [ 731.083343333333232, 71.0, 31.0, 22.0 ],
					"text" : "play"
				}

			}
, 			{
				"box" : 				{
					"id" : "obj-67",
					"maxclass" : "message",
					"numinlets" : 2,
					"numoutlets" : 1,
					"outlettype" : [ "" ],
					"patching_rect" : [ 693.083343333333232, 71.0, 33.0, 22.0 ],
					"text" : "read"
				}

			}
, 			{
				"box" : 				{
					"id" : "obj-66",
					"maxclass" : "message",
					"numinlets" : 2,
					"numoutlets" : 1,
					"outlettype" : [ "" ],
					"patching_rect" : [ 654.583343333333232, 71.0, 34.0, 22.0 ],
					"text" : "write"
				}

			}
, 			{
				"box" : 				{
					"id" : "obj-64",
					"maxclass" : "message",
					"numinlets" : 2,
					"numoutlets" : 1,
					"outlettype" : [ "" ],
					"patching_rect" : [ 813.0, 71.0, 31.0, 22.0 ],
					"text" : "stop"
				}

			}
, 			{
				"box" : 				{
					"id" : "obj-63",
					"maxclass" : "newobj",
					"numinlets" : 0,
					"numoutlets" : 1,
					"outlettype" : [ "" ],
					"patching_rect" : [ 805.0, 44.0, 39.0, 22.0 ],
					"text" : "r stop"
				}

			}
, 			{
				"box" : 				{
					"id" : "obj-62",
					"maxclass" : "comment",
					"numinlets" : 1,
					"numoutlets" : 0,
					"patching_rect" : [ 1060.0, 85.0, 69.0, 20.0 ],
					"text" : "\" s \" to stop"
				}

			}
, 			{
				"box" : 				{
					"id" : "obj-59",
					"maxclass" : "newobj",
					"numinlets" : 1,
					"numoutlets" : 0,
					"patching_rect" : [ 1071.5, 158.5, 41.0, 22.0 ],
					"text" : "s stop"
				}

			}
, 			{
				"box" : 				{
					"id" : "obj-58",
					"maxclass" : "newobj",
					"numinlets" : 2,
					"numoutlets" : 2,
					"outlettype" : [ "bang", "" ],
					"patching_rect" : [ 1071.5, 132.5, 46.0, 22.0 ],
					"text" : "sel 115"
				}

			}
, 			{
				"box" : 				{
					"id" : "obj-52",
					"maxclass" : "newobj",
					"numinlets" : 0,
					"numoutlets" : 4,
					"outlettype" : [ "int", "int", "int", "int" ],
					"patching_rect" : [ 1071.5, 107.0, 50.5, 22.0 ],
					"text" : "key"
				}

			}
, 			{
				"box" : 				{
					"fontsize" : 14.0,
					"id" : "obj-51",
					"maxclass" : "comment",
					"numinlets" : 1,
					"numoutlets" : 0,
					"patching_rect" : [ 24.0, 56.0, 504.0, 22.0 ],
					"text" : "Frequency, velocity, duration, envelope and other data from bach to soundworks"
				}

			}
, 			{
				"box" : 				{
					"fontface" : 1,
					"fontsize" : 24.0,
					"id" : "obj-49",
					"maxclass" : "comment",
					"numinlets" : 1,
					"numoutlets" : 0,
					"patching_rect" : [ 23.0, 23.0, 219.0, 33.0 ],
					"text" : "Example Patch 02 "
				}

			}
, 			{
				"box" : 				{
					"bgslots" : [ 1 ],
					"breakpointshavenoteheads" : 1,
					"clefs" : [ "FGG" ],
					"fontface" : 0,
					"fontname" : "Arial",
					"fontsize" : 12.0,
					"grid" : 1,
					"id" : "obj-2",
					"linklyricstoslot" : 0,
					"loop" : [ 0.0, 0.0 ],
					"maxclass" : "bach.roll",
					"numinlets" : 6,
					"numoutlets" : 8,
					"numvoices" : 1,
					"out" : "nnnnnnn",
					"outlettype" : [ "", "", "", "", "", "", "", "bang" ],
					"patching_rect" : [ 23.0, 105.0, 821.0, 252.833327999999995 ],
					"pitcheditrange" : [ "null" ],
					"ruler" : 2,
					"rulerlabels" : 1,
					"showplayhead" : 1,
					"stafflines" : [ 5 ],
					"textcolor" : [ 0.0, 0.0, 0.0, 1.0 ],
					"tonedivision" : 8,
					"versionnumber" : 7900,
					"voicenames" : [ "(", ")" ],
					"voicespacing" : [ 0.0, 17.0 ],
					"whole_roll_data_0000000000" : [ "roll", "(", "slotinfo", "(", 1, "(", "name", "amplitude envelope", ")", "(", "type", "function", ")", "(", "key", 0, ")", "(", "range", "_x_x_x_x_bach_float64_x_x_x_x_", 0, 3226566656, "_x_x_x_x_bach_float64_x_x_x_x_", 0, 1075314688, ")", "(", "slope", "_x_x_x_x_bach_float64_x_x_x_x_", 0, 0, ")", "(", "representation", "dB", ")", "(", "ysnap", "(", ")", ")", "(", "domain", "_x_x_x_x_bach_float64_x_x_x_x_", 0, 0, "_x_x_x_x_bach_float64_x_x_x_x_", 0, 1072693248, ")", "(", "domainslope", "_x_x_x_x_bach_float64_x_x_x_x_", 0, 0, ")", "(", "width", "temporal", ")", "(", "height", "auto", ")", ")", "(", 2, "(", "name", "gate", ")", "(", "type", "int", ")", "(", "key", 0, ")", "(", "range", "_x_x_x_x_bach_float64_x_x_x_x_", 0, 1072693248, "_x_x_x_x_bach_float64_x_x_x_x_", 0, 1074266112, ")", "(", "slope", "_x_x_x_x_bach_float64_x_x_x_x_", 0, 0, ")", "(", "representation", ")", "(", "default", "_x_x_x_x_bach_float64_x_x_x_x_", 0, 1072693248, ")", "(", "width", "temporal", ")", "(", "height", "auto", ")", ")", "(", 3, "(", "name", "tremolo frequency", ")", "(", "type", "float", ")", "(", "key", 0, ")", "(", "range", "_x_x_x_x_bach_float64_x_x_x_x_", 0, 0, "_x_x_x_x_bach_float64_x_x_x_x_", 0, 1076756480, ")", "(", "slope", "_x_x_x_x_bach_float64_x_x_x_x_", 0, 0, ")", "(", "representation", ")", "(", "default", "_x_x_x_x_bach_float64_x_x_x_x_", 0, 0, ")", "(", "width", "_x_x_x_x_bach_float64_x_x_x_x_", 0, 1079574528, ")", "(", "height", "auto", ")", ")", "(", 4, "(", "name", "tremolo depth", ")", "(", "type", "float", ")", "(", "key", 0, ")", "(", "range", "_x_x_x_x_bach_float64_x_x_x_x_", 0, 0, "_x_x_x_x_bach_float64_x_x_x_x_", 0, 1072693248, ")", "(", "slope", "_x_x_x_x_bach_float64_x_x_x_x_", 0, 0, ")", "(", "representation", ")", "(", "default", "_x_x_x_x_bach_float64_x_x_x_x_", 0, 0, ")", "(", "width", "_x_x_x_x_bach_float64_x_x_x_x_", 0, 1079574528, ")", "(", "height", "auto", ")", ")", "(", 5, "(", "name", "control", ")", "(", "type", "int", ")", "(", "key", 0, ")", "(", "range", "_x_x_x_x_bach_float64_x_x_x_x_", 0, 0, "_x_x_x_x_bach_float64_x_x_x_x_", 0, 1080016896, ")", "(", "slope", "_x_x_x_x_bach_float64_x_x_x_x_", 0, 0, ")", "(", "representation", ")", "(", "default", "_x_x_x_x_bach_float64_x_x_x_x_", 0, 1078984704, ")", "(", "width", "_x_x_x_x_bach_float64_x_x_x_x_", 0, 1079574528, ")", "(", "height", "auto", ")", ")", "(", 6, "(", "name", "modulation frequency", ")", "(", "type", "float", ")", "(", "key", 0, ")", "(", "range", "_x_x_x_x_bach_float64_x_x_x_x_", 0, 0, "_x_x_x_x_bach_float64_x_x_x_x_", 0, 1078525952, ")", "(", "slope", "_x_x_x_x_bach_float64_x_x_x_x_", 0, 0, ")", "(", "representation", ")", "(", "default", "_x_x_x_x_bach_float64_x_x_x_x_", 0, 0, ")", "(", "width", "_x_x_x_x_bach_float64_x_x_x_x_", 0, 1079574528, ")", "(", "height", "auto", ")", ")", "(", 7, "(", "name", "modulation ratio", ")", "(", "type", "float", ")", "(", "key", 0, ")", "(", "range", "_x_x_x_x_bach_float64_x_x_x_x_", 0, 0, "_x_x_x_x_bach_float64_x_x_x_x_", 0, 1077477376, ")", "(", "slope", "_x_x_x_x_bach_float64_x_x_x_x_", 0, 0, ")", "(", "representation", ")", "(", "default", "_x_x_x_x_bach_float64_x_x_x_x_", 0, 1077477376, ")", "(", "width", "_x_x_x_x_bach_float64_x_x_x_x_", 0, 1079574528, ")", "(", "height", "auto", ")", ")", "(", 8, "(", "name", "filelist", ")", "(", "type", "filelist", ")", "(", "key", 0, ")", "(", "width", "_x_x_x_x_bach_float64_x_x_x_x_", 0, 1080213504, ")", "(", "height", "auto", ")", ")", "(", 9, "(", "name", "spat", ")", "(", "type", "spat", ")", "(", "key", 0, ")", "(", "range", "_x_x_x_x_bach_float64_x_x_x_x_", 39322, 1069128089, "_x_x_x_x_bach_float64_x_x_x_x_", 0, 1073217536, ")", "(", "slope", "_x_x_x_x_bach_float64_x_x_x_x_", 0, 0, ")", "(", "representation", ")", "(", "width", "temporal", ")", "(", "height", "auto", ")", ")", "(", 10, "(", "name", "slot 10", ")", "(", "type", "none", ")", "(", "key", 0, ")", "(", "width", "_x_x_x_x_bach_float64_x_x_x_x_", 0, 1079574528, ")", "(", "height", "auto", ")", ")", "(", 11, "(", "name", "slot 11", ")", "(", "type", "none", ")", "(", "key", 0, ")", "(", "width", "_x_x_x_x_bach_float64_x_x_x_x_", 0, 1079574528, ")", "(", "height", "auto", ")", ")", "(", 12, "(", "name", "slot 12", ")", "(", "type", "none", ")", "(", "key", 0, ")", "(", "width", "_x_x_x_x_bach_float64_x_x_x_x_", 0, 1079574528, ")", "(", "height", "auto", ")", ")", "(", 13, "(", "name", "slot 13", ")", "(", "type", "none", ")", "(", "key", 0, ")", "(", "width", "_x_x_x_x_bach_float64_x_x_x_x_", 0, 1079574528, ")", "(", "height", "auto", ")", ")", "(", 14, "(", "name", "slot 14", ")", "(", "type", "none", ")", "(", "key", 0, ")", "(", "width", "_x_x_x_x_bach_float64_x_x_x_x_", 0, 1079574528, ")", "(", "height", "auto", ")", ")", "(", 15, "(", "name", "slot 15", ")", "(", "type", "none", ")", "(", "key", 0, ")", "(", "width", "_x_x_x_x_bach_float64_x_x_x_x_", 0, 1079574528, ")", "(", "height", "auto", ")", ")", "(", 16, "(", "name", "slot 16", ")", "(", "type", "none", ")", "(", "key", 0, ")", "(", "width", "_x_x_x_x_bach_float64_x_x_x_x_", 0, 1079574528, ")", "(", "height", "auto", ")", ")", "(", 17, "(", "name", "slot 17", ")", "(", "type", "none", ")", "(", "key", 0, ")", "(", "width", "_x_x_x_x_bach_float64_x_x_x_x_", 0, 1079574528, ")", "(", "height", "auto", ")", ")", "(", 18, "(", "name", "slot 18", ")", "(", "type", "none", ")", "(", "key", 0, ")", "(", "width", "_x_x_x_x_bach_float64_x_x_x_x_", 0, 1079574528, ")", "(", "height", "auto", ")", ")", "(", 19, "(", "name", "slot 19", ")", "(", "type", "none", ")", "(", "key", 0, ")", "(", "width", "_x_x_x_x_bach_float64_x_x_x_x_", 0, 1079574528, ")", "(", "height", "auto", ")", ")", "(", 20, "(", "name", "slot 20", ")", "(", "type", "none", ")", "(", "key", 0, ")", "(", "width", "_x_x_x_x_bach_float64_x_x_x_x_", 0, 1079574528, ")", "(", "height", "auto", ")", ")", "(", 21, "(", "name", "slot 21", ")", "(", "type", "none", ")", "(", "key", 0, ")", "(", "width", "_x_x_x_x_bach_float64_x_x_x_x_", 0, 1079574528, ")", "(", "height", "auto", ")", ")", "(", 22, "(", "name", "slot 22", ")", "(", "type", "none", ")", "(", "key", 0, ")", "(", "width", "_x_x_x_x_bach_float64_x_x_x_x_", 0, 1079574528, ")", "(", "height", "auto", ")", ")", "(", 23, "(", "name", "slot 23", ")", "(", "type", "none", ")", "(", "key", 0, ")", "(", "width", "_x_x_x_x_bach_float64_x_x_x_x_", 0, 1079574528, ")", "(", "height", "auto", ")", ")", "(", 24, "(", "name", "slot 24", ")", "(", "type", "none", ")", "(", "key", 0, ")", "(", "width", "_x_x_x_x_bach_float64_x_x_x_x_", 0, 1079574528, ")", "(", "height", "auto", ")", ")", "(", 25, "(", "name", "slot 25", ")", "(", "type", "none", ")", "(", "key", 0, ")", "(", "width", "_x_x_x_x_bach_float64_x_x_x_x_", 0, 1079574528, ")", "(", "height", "auto", ")", ")", "(", 26, "(", "name", "slot 26", ")", "(", "type", "none", ")", "(", "key", 0, ")", "(", "width", "_x_x_x_x_bach_float64_x_x_x_x_", 0, 1079574528, ")", "(", "height", "auto", ")", ")", "(", 27, "(", "name", "slot 27", ")", "(", "type", "none", ")", "(", "key", 0, ")", "(", "width", "_x_x_x_x_bach_float64_x_x_x_x_", 0, 1079574528, ")", "(", "height", "auto", ")", ")", "(", 28, "(", "name", "slot 28", ")", "(", "type", "none", ")", "(", "key", 0, ")", "(", "width", "_x_x_x_x_bach_float64_x_x_x_x_", 0, 1079574528, ")", "(", "height", "auto", ")", ")", "(", 29, "(", "name", "slot 29", ")", "(", "type", "none", ")", "(", "key", 0, ")", "(", "width", "_x_x_x_x_bach_float64_x_x_x_x_", 0, 1079574528, ")", "(", "height", "auto", ")", ")", "(", 30, "(", "name", "slot 30", ")", "(", "type", "none", ")", "(", "key", 0, ")", "(", "width", "_x_x_x_x_bach_float64_x_x_x_x_", 0, 1079574528, ")", "(", "height", "auto", ")", ")", ")", "(", "commands", "(", 1, "(", "note", "note", ")", "(", "chord", "chord", ")", "(", "rest", "rest", ")", "(", "key", 0, ")", ")", "(", 2, "(", "note", "note", ")", "(", "chord", "chord", ")", "(", "rest", "rest", ")", "(", "key", 0, ")", ")", "(", 3, "(", "note", "note", ")", "(", "chord", "chord", ")", "(", "rest", "rest", ")", "(", "key", 0, ")", ")", "(", 4, "(", "note", "note", ")", "(", "chord", "chord", ")", "(", "rest", "rest", ")", "(", "key", 0, ")", ")", "(", 5, "(", "note", "note", ")", "(", "chord", "chord", ")", "(", "rest", "rest", ")", "(", "key", 0, ")", ")", ")", "(", "groups", ")", "(", "markers", "(", "_x_x_x_x_bach_float64_x_x_x_x_", 65530, 1082894334, "(", "addsynth", 1, ")", "none", ")", "(", "_x_x_x_x_bach_float64_x_x_x_x_", 65532, 1086214399, "(", "addsynth", 2, ")", "none", ")", "(", "_x_x_x_x_bach_float64_x_x_x_x_", 30848, 1087127210, "(", "marker", 1, ")", "none", ")", ")", "(", "midichannels", 1, ")", "(", "(", "_x_x_x_x_bach_float64_x_x_x_x_", 3144, 1083399948, "(", "_x_x_x_x_bach_float64_x_x_x_x_", 0, 1085981184, "_x_x_x_x_bach_float64_x_x_x_x_", 4920, 1087753592, 56, "(", "slots", "(", 1, "(", "_x_x_x_x_bach_float64_x_x_x_x_", 0, 0, "_x_x_x_x_bach_float64_x_x_x_x_", 0, 3226566656, "_x_x_x_x_bach_float64_x_x_x_x_", 0, 0, ")", "(", "_x_x_x_x_bach_float64_x_x_x_x_", 47660, 1067733055, "_x_x_x_x_bach_float64_x_x_x_x_", 65528, 3225419774, "_x_x_x_x_bach_float64_x_x_x_x_", 0, 0, ")", "(", "_x_x_x_x_bach_float64_x_x_x_x_", 22922, 1070296666, "_x_x_x_x_bach_float64_x_x_x_x_", 53676, 3223788241, "_x_x_x_x_bach_float64_x_x_x_x_", 0, 0, ")", "(", "_x_x_x_x_bach_float64_x_x_x_x_", 8311, 1070945941, "_x_x_x_x_bach_float64_x_x_x_x_", 11648, 3224033325, "_x_x_x_x_bach_float64_x_x_x_x_", 0, 0, ")", "(", "_x_x_x_x_bach_float64_x_x_x_x_", 23900, 1071144480, "_x_x_x_x_bach_float64_x_x_x_x_", 45146, 3224700336, "_x_x_x_x_bach_float64_x_x_x_x_", 0, 0, ")", "(", "_x_x_x_x_bach_float64_x_x_x_x_", 18889, 1071372799, "_x_x_x_x_bach_float64_x_x_x_x_", 10194, 3224534311, "_x_x_x_x_bach_float64_x_x_x_x_", 0, 0, ")", "(", "_x_x_x_x_bach_float64_x_x_x_x_", 59629, 1072273109, "_x_x_x_x_bach_float64_x_x_x_x_", 32038, 3224949373, "_x_x_x_x_bach_float64_x_x_x_x_", 0, 0, ")", "(", "_x_x_x_x_bach_float64_x_x_x_x_", 0, 1072693248, "_x_x_x_x_bach_float64_x_x_x_x_", 0, 3226566656, "_x_x_x_x_bach_float64_x_x_x_x_", 31462, 1071833415, ")", ")", "(", 2, 1, ")", "(", 3, "_x_x_x_x_bach_float64_x_x_x_x_", 0, 0, ")", "(", 4, "_x_x_x_x_bach_float64_x_x_x_x_", 0, 0, ")", "(", 9, "(", "_x_x_x_x_bach_float64_x_x_x_x_", 11858, 1045934462, "_x_x_x_x_bach_float64_x_x_x_x_", 29041, 1072427608, "_x_x_x_x_bach_float64_x_x_x_x_", 36991, 1079717040, 0, ")", "(", "_x_x_x_x_bach_float64_x_x_x_x_", 23399, 1070881144, "_x_x_x_x_bach_float64_x_x_x_x_", 59537, 1072700238, "_x_x_x_x_bach_float64_x_x_x_x_", 24729, 3226857380, 0, ")", "(", "_x_x_x_x_bach_float64_x_x_x_x_", 27896, 1071880844, "_x_x_x_x_bach_float64_x_x_x_x_", 22665, 1072728200, "_x_x_x_x_bach_float64_x_x_x_x_", 50868, 1079073337, 0, ")", "(", "_x_x_x_x_bach_float64_x_x_x_x_", 49164, 1072361277, "_x_x_x_x_bach_float64_x_x_x_x_", 26706, 1072923934, "_x_x_x_x_bach_float64_x_x_x_x_", 40702, 1080669061, 0, ")", "(", "_x_x_x_x_bach_float64_x_x_x_x_", 23257, 1072688482, "_x_x_x_x_bach_float64_x_x_x_x_", 65535, 1073217535, "_x_x_x_x_bach_float64_x_x_x_x_", 45231, 1081127575, 0, ")", ")", ")", 0, ")", "(", "_x_x_x_x_bach_float64_x_x_x_x_", 0, 1086325760, "_x_x_x_x_bach_float64_x_x_x_x_", 9839, 1086559472, 25, "(", "slots", "(", 1, "(", "_x_x_x_x_bach_float64_x_x_x_x_", 0, 0, "_x_x_x_x_bach_float64_x_x_x_x_", 0, 3226566656, "_x_x_x_x_bach_float64_x_x_x_x_", 0, 0, ")", "(", "_x_x_x_x_bach_float64_x_x_x_x_", 13056, 1067718990, "_x_x_x_x_bach_float64_x_x_x_x_", 7281, 3226388252, "_x_x_x_x_bach_float64_x_x_x_x_", 0, 0, ")", "(", "_x_x_x_x_bach_float64_x_x_x_x_", 40205, 1070083287, "_x_x_x_x_bach_float64_x_x_x_x_", 20388, 3225516623, "_x_x_x_x_bach_float64_x_x_x_x_", 44562, 1072043130, ")", "(", "_x_x_x_x_bach_float64_x_x_x_x_", 9697, 1071435834, "_x_x_x_x_bach_float64_x_x_x_x_", 54, 3224601512, "_x_x_x_x_bach_float64_x_x_x_x_", 0, 0, ")", "(", "_x_x_x_x_bach_float64_x_x_x_x_", 10608, 1071892809, "_x_x_x_x_bach_float64_x_x_x_x_", 63754, 3224506641, "_x_x_x_x_bach_float64_x_x_x_x_", 0, 0, ")", "(", "_x_x_x_x_bach_float64_x_x_x_x_", 43445, 1072166075, "_x_x_x_x_bach_float64_x_x_x_x_", 49928, 3225923778, "_x_x_x_x_bach_float64_x_x_x_x_", 0, 0, ")", "(", "_x_x_x_x_bach_float64_x_x_x_x_", 34128, 1072320436, "_x_x_x_x_bach_float64_x_x_x_x_", 18932, 3225198409, "_x_x_x_x_bach_float64_x_x_x_x_", 0, 0, ")", "(", "_x_x_x_x_bach_float64_x_x_x_x_", 16476, 1072593794, "_x_x_x_x_bach_float64_x_x_x_x_", 47430, 3226178744, "_x_x_x_x_bach_float64_x_x_x_x_", 0, 0, ")", "(", "_x_x_x_x_bach_float64_x_x_x_x_", 0, 1072693248, "_x_x_x_x_bach_float64_x_x_x_x_", 0, 3226566656, "_x_x_x_x_bach_float64_x_x_x_x_", 0, 0, ")", ")", "(", 3, "_x_x_x_x_bach_float64_x_x_x_x_", 0, 0, ")", "(", 4, "_x_x_x_x_bach_float64_x_x_x_x_", 0, 0, ")", "(", 9, "(", "_x_x_x_x_bach_float64_x_x_x_x_", 11858, 1045934462, "_x_x_x_x_bach_float64_x_x_x_x_", 29041, 1072427608, "_x_x_x_x_bach_float64_x_x_x_x_", 36991, 1079717040, 0, ")", "(", "_x_x_x_x_bach_float64_x_x_x_x_", 23399, 1070881144, "_x_x_x_x_bach_float64_x_x_x_x_", 59537, 1072700238, "_x_x_x_x_bach_float64_x_x_x_x_", 24729, 3226857380, 0, ")", "(", "_x_x_x_x_bach_float64_x_x_x_x_", 27896, 1071880844, "_x_x_x_x_bach_float64_x_x_x_x_", 22665, 1072728200, "_x_x_x_x_bach_float64_x_x_x_x_", 50868, 1079073337, 0, ")", "(", "_x_x_x_x_bach_float64_x_x_x_x_", 49164, 1072361277, "_x_x_x_x_bach_float64_x_x_x_x_", 26706, 1072923934, "_x_x_x_x_bach_float64_x_x_x_x_", 40702, 1080669061, 0, ")", "(", "_x_x_x_x_bach_float64_x_x_x_x_", 23257, 1072688482, "_x_x_x_x_bach_float64_x_x_x_x_", 65535, 1073217535, "_x_x_x_x_bach_float64_x_x_x_x_", 45231, 1081127575, 0, ")", ")", ")", 0, ")", "(", "_x_x_x_x_bach_float64_x_x_x_x_", 0, 1086492160, "_x_x_x_x_bach_float64_x_x_x_x_", 9839, 1087026672, 8, "(", "slots", "(", 1, "(", "_x_x_x_x_bach_float64_x_x_x_x_", 0, 0, "_x_x_x_x_bach_float64_x_x_x_x_", 0, 3226566656, "_x_x_x_x_bach_float64_x_x_x_x_", 0, 0, ")", "(", "_x_x_x_x_bach_float64_x_x_x_x_", 48533, 1070710984, "_x_x_x_x_bach_float64_x_x_x_x_", 43696, 3225004714, "_x_x_x_x_bach_float64_x_x_x_x_", 0, 0, ")", "(", "_x_x_x_x_bach_float64_x_x_x_x_", 13146, 1071539057, "_x_x_x_x_bach_float64_x_x_x_x_", 13112, 3225170739, "_x_x_x_x_bach_float64_x_x_x_x_", 0, 0, ")", "(", "_x_x_x_x_bach_float64_x_x_x_x_", 22997, 1072583336, "_x_x_x_x_bach_float64_x_x_x_x_", 12479, 3226012719, "_x_x_x_x_bach_float64_x_x_x_x_", 60297, 1071875358, ")", "(", "_x_x_x_x_bach_float64_x_x_x_x_", 0, 1072693248, "_x_x_x_x_bach_float64_x_x_x_x_", 0, 3226566656, "_x_x_x_x_bach_float64_x_x_x_x_", 0, 0, ")", ")", "(", 3, "_x_x_x_x_bach_float64_x_x_x_x_", 0, 0, ")", "(", 4, "_x_x_x_x_bach_float64_x_x_x_x_", 0, 0, ")", "(", 5, 0, ")", "(", 6, "_x_x_x_x_bach_float64_x_x_x_x_", 0, 0, ")", "(", 7, "_x_x_x_x_bach_float64_x_x_x_x_", 0, 0, ")", "(", 9, "(", "_x_x_x_x_bach_float64_x_x_x_x_", 11858, 1045934462, "_x_x_x_x_bach_float64_x_x_x_x_", 29041, 1072427608, "_x_x_x_x_bach_float64_x_x_x_x_", 36991, 1079717040, 0, ")", "(", "_x_x_x_x_bach_float64_x_x_x_x_", 23399, 1070881144, "_x_x_x_x_bach_float64_x_x_x_x_", 59537, 1072700238, "_x_x_x_x_bach_float64_x_x_x_x_", 24729, 3226857380, 0, ")", "(", "_x_x_x_x_bach_float64_x_x_x_x_", 27896, 1071880844, "_x_x_x_x_bach_float64_x_x_x_x_", 22665, 1072728200, "_x_x_x_x_bach_float64_x_x_x_x_", 50868, 1079073337, 0, ")", "(", "_x_x_x_x_bach_float64_x_x_x_x_", 49164, 1072361277, "_x_x_x_x_bach_float64_x_x_x_x_", 26706, 1072923934, "_x_x_x_x_bach_float64_x_x_x_x_", 40702, 1080669061, 0, ")", "(", "_x_x_x_x_bach_float64_x_x_x_x_", 23257, 1072688482, "_x_x_x_x_bach_float64_x_x_x_x_", 65535, 1073217535, "_x_x_x_x_bach_float64_x_x_x_x_", 45231, 1081127575, 0, ")", ")", ")", 0, ")", 0, ")", "(", "_x_x_x_x_bach_float64_x_x_x_x_", 49854, 1086313920, "(", "_x_x_x_x_bach_float64_x_x_x_x_", 0, 1086415360, "_x_x_x_x_bach_float64_x_x_x_x_", 7660, 1087674043, 17, "(", "slots", "(", 1, "(", "_x_x_x_x_bach_float64_x_x_x_x_", 0, 0, "_x_x_x_x_bach_float64_x_x_x_x_", 0, 3226566656, "_x_x_x_x_bach_float64_x_x_x_x_", 0, 0, ")", "(", "_x_x_x_x_bach_float64_x_x_x_x_", 1940, 1071859443, "_x_x_x_x_bach_float64_x_x_x_x_", 43800, 3225627306, "_x_x_x_x_bach_float64_x_x_x_x_", 0, 0, ")", "(", "_x_x_x_x_bach_float64_x_x_x_x_", 7501, 1072110228, "_x_x_x_x_bach_float64_x_x_x_x_", 232, 3226042368, "_x_x_x_x_bach_float64_x_x_x_x_", 0, 0, ")", "(", "_x_x_x_x_bach_float64_x_x_x_x_", 0, 1072693248, "_x_x_x_x_bach_float64_x_x_x_x_", 0, 3226566656, "_x_x_x_x_bach_float64_x_x_x_x_", 39330, 1071225241, ")", ")", "(", 2, 2, ")", "(", 3, "_x_x_x_x_bach_float64_x_x_x_x_", 55330, 1072778235, ")", "(", 4, "_x_x_x_x_bach_float64_x_x_x_x_", 56000, 1070831270, ")", "(", 5, 30, ")", "(", 6, "_x_x_x_x_bach_float64_x_x_x_x_", 0, 0, ")", ")", 0, ")", 0, ")", "(", "_x_x_x_x_bach_float64_x_x_x_x_", 55816, 1086937728, "(", "_x_x_x_x_bach_float64_x_x_x_x_", 0, 1086019584, "_x_x_x_x_bach_float64_x_x_x_x_", 25532, 1087027822, 74, "(", "slots", "(", 1, "(", "_x_x_x_x_bach_float64_x_x_x_x_", 660, 1044723673, "_x_x_x_x_bach_float64_x_x_x_x_", 0, 3226566656, "_x_x_x_x_bach_float64_x_x_x_x_", 0, 0, ")", "(", "_x_x_x_x_bach_float64_x_x_x_x_", 33371, 1068924391, "_x_x_x_x_bach_float64_x_x_x_x_", 46602, 3225641142, "_x_x_x_x_bach_float64_x_x_x_x_", 0, 0, ")", "(", "_x_x_x_x_bach_float64_x_x_x_x_", 7046, 1070431275, "_x_x_x_x_bach_float64_x_x_x_x_", 58252, 3224451299, "_x_x_x_x_bach_float64_x_x_x_x_", 0, 0, ")", "(", "_x_x_x_x_bach_float64_x_x_x_x_", 7682, 1070948111, "_x_x_x_x_bach_float64_x_x_x_x_", 16126, 3224629182, "_x_x_x_x_bach_float64_x_x_x_x_", 0, 0, ")", "(", "_x_x_x_x_bach_float64_x_x_x_x_", 25026, 1071656150, "_x_x_x_x_bach_float64_x_x_x_x_", 24758, 3225848672, "_x_x_x_x_bach_float64_x_x_x_x_", 0, 0, ")", "(", "_x_x_x_x_bach_float64_x_x_x_x_", 58764, 1071962843, "_x_x_x_x_bach_float64_x_x_x_x_", 16850, 3225722177, "_x_x_x_x_bach_float64_x_x_x_x_", 0, 0, ")", "(", "_x_x_x_x_bach_float64_x_x_x_x_", 19586, 1072200174, "_x_x_x_x_bach_float64_x_x_x_x_", 1450, 3225115397, "_x_x_x_x_bach_float64_x_x_x_x_", 0, 0, ")", "(", "_x_x_x_x_bach_float64_x_x_x_x_", 21405, 1072409043, "_x_x_x_x_bach_float64_x_x_x_x_", 5722, 3226002838, "_x_x_x_x_bach_float64_x_x_x_x_", 0, 0, ")", "(", "_x_x_x_x_bach_float64_x_x_x_x_", 0, 1072693248, "_x_x_x_x_bach_float64_x_x_x_x_", 0, 3226566656, "_x_x_x_x_bach_float64_x_x_x_x_", 0, 0, ")", ")", "(", 2, 3, ")", "(", 3, "_x_x_x_x_bach_float64_x_x_x_x_", 0, 0, ")", "(", 4, "_x_x_x_x_bach_float64_x_x_x_x_", 0, 0, ")", "(", 5, 6, ")", "(", 6, "_x_x_x_x_bach_float64_x_x_x_x_", 34578, 1077019541, ")", "(", 7, "_x_x_x_x_bach_float64_x_x_x_x_", 56046, 1074844663, ")", ")", 0, ")", "(", "_x_x_x_x_bach_float64_x_x_x_x_", 0, 1086313984, "_x_x_x_x_bach_float64_x_x_x_x_", 12766, 1087792567, 6, "(", "slots", "(", 1, "(", "_x_x_x_x_bach_float64_x_x_x_x_", 660, 1044723673, "_x_x_x_x_bach_float64_x_x_x_x_", 0, 3226566656, "_x_x_x_x_bach_float64_x_x_x_x_", 0, 0, ")", "(", "_x_x_x_x_bach_float64_x_x_x_x_", 15050, 1066530469, "_x_x_x_x_bach_float64_x_x_x_x_", 29126, 3226180721, "_x_x_x_x_bach_float64_x_x_x_x_", 0, 0, ")", "(", "_x_x_x_x_bach_float64_x_x_x_x_", 18174, 1069670070, "_x_x_x_x_bach_float64_x_x_x_x_", 5614, 3225313045, "_x_x_x_x_bach_float64_x_x_x_x_", 47558, 3218421280, ")", "(", "_x_x_x_x_bach_float64_x_x_x_x_", 28577, 1070390401, "_x_x_x_x_bach_float64_x_x_x_x_", 2808, 3224743818, "_x_x_x_x_bach_float64_x_x_x_x_", 0, 0, ")", "(", "_x_x_x_x_bach_float64_x_x_x_x_", 7680, 1070948111, "_x_x_x_x_bach_float64_x_x_x_x_", 7388, 3225210268, "_x_x_x_x_bach_float64_x_x_x_x_", 0, 0, ")", "(", "_x_x_x_x_bach_float64_x_x_x_x_", 62949, 1071395024, "_x_x_x_x_bach_float64_x_x_x_x_", 16016, 3224365374, "_x_x_x_x_bach_float64_x_x_x_x_", 0, 0, ")", "(", "_x_x_x_x_bach_float64_x_x_x_x_", 24282, 1071645825, "_x_x_x_x_bach_float64_x_x_x_x_", 8732, 3224838689, "_x_x_x_x_bach_float64_x_x_x_x_", 0, 0, ")", "(", "_x_x_x_x_bach_float64_x_x_x_x_", 27354, 1072169068, "_x_x_x_x_bach_float64_x_x_x_x_", 2912, 3226056203, "_x_x_x_x_bach_float64_x_x_x_x_", 55100, 3216443965, ")", "(", "_x_x_x_x_bach_float64_x_x_x_x_", 0, 1072693248, "_x_x_x_x_bach_float64_x_x_x_x_", 0, 3226566656, "_x_x_x_x_bach_float64_x_x_x_x_", 62919, 1072022159, ")", ")", "(", 3, "_x_x_x_x_bach_float64_x_x_x_x_", 51527, 1074630072, ")", "(", 4, "_x_x_x_x_bach_float64_x_x_x_x_", 22654, 1071716562, ")", "(", 5, 40, ")", ")", 0, ")", 0, ")", 0, ")" ],
					"whole_roll_data_count" : [ 1 ],
					"zoom" : 15.0
				}

			}
, 			{
				"box" : 				{
					"angle" : 270.0,
					"background" : 1,
					"bgcolor" : [ 0.76078431372549, 0.784313725490196, 0.796078431372549, 1.0 ],
					"bordercolor" : [ 0.600000083446503, 0.600000023841858, 0.599999964237213, 1.0 ],
					"id" : "obj-61",
					"maxclass" : "panel",
					"mode" : 0,
					"numinlets" : 1,
					"numoutlets" : 0,
					"patching_rect" : [ 890.0, 105.0, 154.0, 252.833327999999995 ],
					"proportion" : 0.5
				}

			}
 ],
		"lines" : [ 			{
				"patchline" : 				{
					"destination" : [ "obj-15", 1 ],
					"source" : [ "obj-1", 0 ]
				}

			}
, 			{
				"patchline" : 				{
					"destination" : [ "obj-16", 1 ],
					"source" : [ "obj-12", 0 ]
				}

			}
, 			{
				"patchline" : 				{
					"destination" : [ "obj-1", 0 ],
					"source" : [ "obj-2", 1 ]
				}

			}
, 			{
				"patchline" : 				{
					"destination" : [ "obj-12", 0 ],
					"source" : [ "obj-2", 2 ]
				}

			}
, 			{
				"patchline" : 				{
					"destination" : [ "obj-21", 0 ],
					"source" : [ "obj-2", 3 ]
				}

			}
, 			{
				"patchline" : 				{
					"destination" : [ "obj-24", 0 ],
					"source" : [ "obj-2", 4 ]
				}

			}
, 			{
				"patchline" : 				{
					"destination" : [ "obj-30", 0 ],
					"source" : [ "obj-2", 5 ]
				}

			}
, 			{
				"patchline" : 				{
					"destination" : [ "obj-60", 0 ],
					"source" : [ "obj-2", 6 ]
				}

			}
, 			{
				"patchline" : 				{
					"destination" : [ "obj-97", 1 ],
					"source" : [ "obj-20", 0 ]
				}

			}
, 			{
				"patchline" : 				{
					"destination" : [ "obj-22", 1 ],
					"source" : [ "obj-21", 0 ]
				}

			}
, 			{
				"patchline" : 				{
					"destination" : [ "obj-2", 0 ],
					"source" : [ "obj-23", 0 ]
				}

			}
, 			{
				"patchline" : 				{
					"destination" : [ "obj-29", 1 ],
					"source" : [ "obj-24", 0 ]
				}

			}
, 			{
				"patchline" : 				{
					"destination" : [ "obj-98", 1 ],
					"source" : [ "obj-26", 0 ]
				}

			}
, 			{
				"patchline" : 				{
					"destination" : [ "obj-102", 1 ],
					"source" : [ "obj-27", 0 ]
				}

			}
, 			{
				"patchline" : 				{
					"destination" : [ "obj-100", 1 ],
					"source" : [ "obj-28", 0 ]
				}

			}
, 			{
				"patchline" : 				{
					"destination" : [ "obj-41", 0 ],
					"source" : [ "obj-30", 0 ]
				}

			}
, 			{
				"patchline" : 				{
					"destination" : [ "obj-80", 1 ],
					"source" : [ "obj-31", 0 ]
				}

			}
, 			{
				"patchline" : 				{
					"destination" : [ "obj-93", 1 ],
					"source" : [ "obj-32", 0 ]
				}

			}
, 			{
				"patchline" : 				{
					"destination" : [ "obj-38", 1 ],
					"source" : [ "obj-33", 0 ]
				}

			}
, 			{
				"patchline" : 				{
					"destination" : [ "obj-40", 1 ],
					"source" : [ "obj-34", 0 ]
				}

			}
, 			{
				"patchline" : 				{
					"color" : [ 0.064120709896088, 0.501819789409637, 0.501972615718842, 0.599796660958904 ],
					"destination" : [ "obj-85", 0 ],
					"order" : 0,
					"source" : [ "obj-41", 0 ]
				}

			}
, 			{
				"patchline" : 				{
					"color" : [ 0.064120709896088, 0.501819789409637, 0.501972615718842, 0.599796660958904 ],
					"destination" : [ "obj-91", 0 ],
					"order" : 1,
					"source" : [ "obj-41", 0 ]
				}

			}
, 			{
				"patchline" : 				{
					"color" : [ 0.064120709896088, 0.501819789409637, 0.501972615718842, 0.599796660958904 ],
					"destination" : [ "obj-94", 0 ],
					"order" : 5,
					"source" : [ "obj-41", 0 ]
				}

			}
, 			{
				"patchline" : 				{
					"color" : [ 0.064120709896088, 0.501819789409637, 0.501972615718842, 0.599796660958904 ],
					"destination" : [ "obj-95", 0 ],
					"order" : 4,
					"source" : [ "obj-41", 0 ]
				}

			}
, 			{
				"patchline" : 				{
					"color" : [ 0.064120709896088, 0.501819789409637, 0.501972615718842, 0.599796660958904 ],
					"destination" : [ "obj-96", 0 ],
					"order" : 3,
					"source" : [ "obj-41", 0 ]
				}

			}
, 			{
				"patchline" : 				{
					"color" : [ 0.064120709896088, 0.501819789409637, 0.501972615718842, 0.599796660958904 ],
					"destination" : [ "obj-99", 0 ],
					"order" : 2,
					"source" : [ "obj-41", 0 ]
				}

			}
, 			{
				"patchline" : 				{
					"destination" : [ "obj-43", 1 ],
					"source" : [ "obj-45", 0 ]
				}

			}
, 			{
				"patchline" : 				{
					"destination" : [ "obj-44", 1 ],
					"source" : [ "obj-46", 0 ]
				}

			}
, 			{
				"patchline" : 				{
					"destination" : [ "obj-47", 1 ],
					"source" : [ "obj-50", 0 ]
				}

			}
, 			{
				"patchline" : 				{
					"destination" : [ "obj-58", 0 ],
					"source" : [ "obj-52", 0 ]
				}

			}
, 			{
				"patchline" : 				{
					"destination" : [ "obj-48", 1 ],
					"source" : [ "obj-53", 0 ]
				}

			}
, 			{
				"patchline" : 				{
					"destination" : [ "obj-54", 1 ],
					"source" : [ "obj-56", 0 ]
				}

			}
, 			{
				"patchline" : 				{
					"destination" : [ "obj-55", 1 ],
					"source" : [ "obj-57", 0 ]
				}

			}
, 			{
				"patchline" : 				{
					"destination" : [ "obj-59", 0 ],
					"source" : [ "obj-58", 0 ]
				}

			}
, 			{
				"patchline" : 				{
					"destination" : [ "obj-9", 0 ],
					"source" : [ "obj-60", 0 ]
				}

			}
, 			{
				"patchline" : 				{
					"destination" : [ "obj-64", 0 ],
					"source" : [ "obj-63", 0 ]
				}

			}
, 			{
				"patchline" : 				{
					"destination" : [ "obj-2", 0 ],
					"source" : [ "obj-64", 0 ]
				}

			}
, 			{
				"patchline" : 				{
					"destination" : [ "obj-8", 0 ],
					"source" : [ "obj-65", 0 ]
				}

			}
, 			{
				"patchline" : 				{
					"destination" : [ "obj-2", 0 ],
					"source" : [ "obj-66", 0 ]
				}

			}
, 			{
				"patchline" : 				{
					"destination" : [ "obj-2", 0 ],
					"source" : [ "obj-67", 0 ]
				}

			}
, 			{
				"patchline" : 				{
					"destination" : [ "obj-2", 0 ],
					"source" : [ "obj-68", 0 ]
				}

			}
, 			{
				"patchline" : 				{
					"destination" : [ "obj-5", 1 ],
					"source" : [ "obj-7", 1 ]
				}

			}
, 			{
				"patchline" : 				{
					"destination" : [ "obj-5", 0 ],
					"source" : [ "obj-7", 0 ]
				}

			}
, 			{
				"patchline" : 				{
					"destination" : [ "obj-69", 1 ],
					"source" : [ "obj-71", 0 ]
				}

			}
, 			{
				"patchline" : 				{
					"destination" : [ "obj-70", 1 ],
					"source" : [ "obj-72", 0 ]
				}

			}
, 			{
				"patchline" : 				{
					"destination" : [ "obj-73", 1 ],
					"source" : [ "obj-75", 0 ]
				}

			}
, 			{
				"patchline" : 				{
					"destination" : [ "obj-74", 1 ],
					"source" : [ "obj-76", 0 ]
				}

			}
, 			{
				"patchline" : 				{
					"destination" : [ "obj-9", 1 ],
					"source" : [ "obj-8", 0 ]
				}

			}
, 			{
				"patchline" : 				{
					"destination" : [ "obj-31", 0 ],
					"source" : [ "obj-85", 0 ]
				}

			}
, 			{
				"patchline" : 				{
					"destination" : [ "obj-7", 1 ],
					"order" : 0,
					"source" : [ "obj-9", 0 ]
				}

			}
, 			{
				"patchline" : 				{
					"destination" : [ "obj-7", 0 ],
					"order" : 1,
					"source" : [ "obj-9", 0 ]
				}

			}
, 			{
				"patchline" : 				{
					"destination" : [ "obj-32", 0 ],
					"order" : 2,
					"source" : [ "obj-91", 0 ]
				}

			}
, 			{
				"patchline" : 				{
					"destination" : [ "obj-75", 0 ],
					"order" : 0,
					"source" : [ "obj-91", 0 ]
				}

			}
, 			{
				"patchline" : 				{
					"destination" : [ "obj-76", 0 ],
					"order" : 1,
					"source" : [ "obj-91", 0 ]
				}

			}
, 			{
				"patchline" : 				{
					"destination" : [ "obj-2", 0 ],
					"source" : [ "obj-92", 0 ]
				}

			}
, 			{
				"patchline" : 				{
					"destination" : [ "obj-20", 0 ],
					"order" : 2,
					"source" : [ "obj-94", 0 ]
				}

			}
, 			{
				"patchline" : 				{
					"destination" : [ "obj-33", 0 ],
					"order" : 1,
					"source" : [ "obj-94", 0 ]
				}

			}
, 			{
				"patchline" : 				{
					"destination" : [ "obj-34", 0 ],
					"order" : 0,
					"source" : [ "obj-94", 0 ]
				}

			}
, 			{
				"patchline" : 				{
					"destination" : [ "obj-26", 0 ],
					"order" : 2,
					"source" : [ "obj-95", 0 ]
				}

			}
, 			{
				"patchline" : 				{
					"destination" : [ "obj-71", 0 ],
					"order" : 0,
					"source" : [ "obj-95", 0 ]
				}

			}
, 			{
				"patchline" : 				{
					"destination" : [ "obj-72", 0 ],
					"order" : 1,
					"source" : [ "obj-95", 0 ]
				}

			}
, 			{
				"patchline" : 				{
					"destination" : [ "obj-27", 0 ],
					"order" : 2,
					"source" : [ "obj-96", 0 ]
				}

			}
, 			{
				"patchline" : 				{
					"destination" : [ "obj-45", 0 ],
					"order" : 0,
					"source" : [ "obj-96", 0 ]
				}

			}
, 			{
				"patchline" : 				{
					"destination" : [ "obj-46", 0 ],
					"order" : 1,
					"source" : [ "obj-96", 0 ]
				}

			}
, 			{
				"patchline" : 				{
					"destination" : [ "obj-28", 0 ],
					"order" : 2,
					"source" : [ "obj-99", 0 ]
				}

			}
, 			{
				"patchline" : 				{
					"destination" : [ "obj-56", 0 ],
					"order" : 0,
					"source" : [ "obj-99", 0 ]
				}

			}
, 			{
				"patchline" : 				{
					"destination" : [ "obj-57", 0 ],
					"order" : 1,
					"source" : [ "obj-99", 0 ]
				}

			}
 ],
		"parameters" : 		{
			"obj-7" : [ "live.gain~", "live.gain~", 0 ],
			"parameterbanks" : 			{

			}
,
			"inherited_shortname" : 1
		}
,
		"dependency_cache" : [ 			{
				"name" : "cage.ezsynth~.maxpat",
				"bootpath" : "~/Documents/Max 8/Packages/cage/patchers",
				"patcherrelativepath" : "../../../Documents/Max 8/Packages/cage/patchers",
				"type" : "JSON",
				"implicit" : 1
			}
, 			{
				"name" : "cage.ezsynth_poly.maxpat",
				"bootpath" : "~/Documents/Max 8/Packages/cage/patchers",
				"patcherrelativepath" : "../../../Documents/Max 8/Packages/cage/patchers",
				"type" : "JSON",
				"implicit" : 1
			}
, 			{
				"name" : "bach.slot2curve.maxpat",
				"bootpath" : "~/Documents/Max 8/Packages/bach/patchers",
				"patcherrelativepath" : "../../../Documents/Max 8/Packages/bach/patchers",
				"type" : "JSON",
				"implicit" : 1
			}
, 			{
				"name" : "bach.times.maxpat",
				"bootpath" : "~/Documents/Max 8/Packages/bach/patchers",
				"patcherrelativepath" : "../../../Documents/Max 8/Packages/bach/patchers",
				"type" : "JSON",
				"implicit" : 1
			}
, 			{
				"name" : "bach.x2dx.maxpat",
				"bootpath" : "~/Documents/Max 8/Packages/bach/patchers",
				"patcherrelativepath" : "../../../Documents/Max 8/Packages/bach/patchers",
				"type" : "JSON",
				"implicit" : 1
			}
, 			{
				"name" : "bach.filternull.maxpat",
				"bootpath" : "~/Documents/Max 8/Packages/bach/patchers",
				"patcherrelativepath" : "../../../Documents/Max 8/Packages/bach/patchers",
				"type" : "JSON",
				"implicit" : 1
			}
, 			{
				"name" : "bach.dl2curve.maxpat",
				"bootpath" : "~/Documents/Max 8/Packages/bach/patchers",
				"patcherrelativepath" : "../../../Documents/Max 8/Packages/bach/patchers",
				"type" : "JSON",
				"implicit" : 1
			}
, 			{
				"name" : "bach.+.maxpat",
				"bootpath" : "~/Documents/Max 8/Packages/bach/patchers",
				"patcherrelativepath" : "../../../Documents/Max 8/Packages/bach/patchers",
				"type" : "JSON",
				"implicit" : 1
			}
, 			{
				"name" : "bach.mc2f.maxpat",
				"bootpath" : "~/Documents/Max 8/Packages/bach/patchers",
				"patcherrelativepath" : "../../../Documents/Max 8/Packages/bach/patchers",
				"type" : "JSON",
				"implicit" : 1
			}
, 			{
				"name" : "bach.roll.mxo",
				"type" : "iLaX"
			}
, 			{
				"name" : "bach.keys.mxo",
				"type" : "iLaX"
			}
, 			{
				"name" : "bach.trans.mxo",
				"type" : "iLaX"
			}
, 			{
				"name" : "bach.pick.mxo",
				"type" : "iLaX"
			}
, 			{
				"name" : "bach.expr.mxo",
				"type" : "iLaX"
			}
, 			{
				"name" : "bach.portal.mxo",
				"type" : "iLaX"
			}
, 			{
				"name" : "bach.args.mxo",
				"type" : "iLaX"
			}
, 			{
				"name" : "bach.iter.mxo",
				"type" : "iLaX"
			}
, 			{
				"name" : "bach.collect.mxo",
				"type" : "iLaX"
			}
, 			{
				"name" : "bach.flat.mxo",
				"type" : "iLaX"
			}
, 			{
				"name" : "bach.slice.mxo",
				"type" : "iLaX"
			}
, 			{
				"name" : "bach.lace.mxo",
				"type" : "iLaX"
			}
, 			{
				"name" : "bach.reg.mxo",
				"type" : "iLaX"
			}
, 			{
				"name" : "bach.eq.mxo",
				"type" : "iLaX"
			}
, 			{
				"name" : "bach.gt.mxo",
				"type" : "iLaX"
			}
, 			{
				"name" : "bach.append.mxo",
				"type" : "iLaX"
			}
, 			{
				"name" : "bach.nth.mxo",
				"type" : "iLaX"
			}
, 			{
				"name" : "bach.is.mxo",
				"type" : "iLaX"
			}
, 			{
				"name" : "bach.length.mxo",
				"type" : "iLaX"
			}
 ],
		"autosave" : 0
	}

}
